<?xml version="1.0" encoding="utf-8"?>
<!-- Generator: Adobe Illustrator 16.0.0, SVG Export Plug-In . SVG Version: 6.00 Build 0)  -->
<!DOCTYPE svg PUBLIC "-//W3C//DTD SVG 1.1//EN" "http://www.w3.org/Graphics/SVG/1.1/DTD/svg11.dtd">
<svg version="1.1" id="Layer_1" xmlns="http://www.w3.org/2000/svg" xmlns:xlink="http://www.w3.org/1999/xlink" x="0px" y="0px"
	 width="111.792px" height="103.104px" viewBox="0 0 111.792 103.104" enable-background="new 0 0 111.792 103.104"
	 xml:space="preserve">
<path fill="#28A745" d="M82.393,20.061L57.262,4.645L32.13,20.061L7,35.478v63.625h100.525V35.478L82.393,20.061z M71.685,56.63
	l-17.521,17.52c-0.595,0.595-1.56,0.595-2.154,0l-9.903-9.903c-0.595-0.595-0.595-1.56,0-2.153l2.154-2.156
	c0.595-0.594,1.56-0.594,2.155,0l6.671,6.672L67.376,52.32c0.595-0.595,1.56-0.595,2.154,0l2.155,2.154
	C72.28,55.069,72.28,56.034,71.685,56.63z"/>
</svg>
