<?xml version="1.0" encoding="utf-8"?>
<!-- Generator: Adobe Illustrator 16.0.0, SVG Export Plug-In . SVG Version: 6.00 Build 0)  -->
<!DOCTYPE svg PUBLIC "-//W3C//DTD SVG 1.1//EN" "http://www.w3.org/Graphics/SVG/1.1/DTD/svg11.dtd">
<svg version="1.1" id="Layer_1" xmlns="http://www.w3.org/2000/svg" xmlns:xlink="http://www.w3.org/1999/xlink" x="0px" y="0px"
	 width="724.584px" height="103.104px" viewBox="0 0 724.584 103.104" enable-background="new 0 0 724.584 103.104"
	 xml:space="preserve">
<g enable-background="new    ">
	<path d="M224.317,50.201c0,12.601-9.9,22.701-25.102,22.701c-7.2,0-8.601,0-11.101,0v4.7c0,4.4,0.3,7,1.9,8.801
		c2.8,3,4.201,4.8,3.9,6.7c-0.3,2-1.5,3-4.6,3c-0.5,0-20.501,0-20.602,0c-3.1,0-4.5-1-4.7-3c-0.1-1.801,0.6-3.101,3.2-6.7
		c1.8-2.501,2-5.801,2-12.801V48.6c0-6.9-0.2-10.2-2-12.801c-2.6-3.601-3.3-4.8-3.2-6.601c0.2-2.1,1.6-3.1,4.7-3.1
		c0.1,0,24.501,0,29.302,0C217.417,26.099,224.317,37.599,224.317,50.201z M204.216,49.2c0-7.8-4-13.601-10.701-13.601
		c-0.1,0-0.3,0-0.4,0c-4.601,0-5,1.5-5,6.501c0,2.399,0,11.801,0,14.101c0,5,0.4,6.601,5,6.601c0.1,0,0.3,0,0.4,0
		C200.215,62.802,204.216,56.901,204.216,49.2z"/>
	<path d="M256.915,93.103c-0.2,2.1-1.6,3-4.601,3c-0.2,0-19.101,0-19.301,0c-3.1,0-4.5-0.9-4.6-3c-0.2-1.801,0.6-3.101,3.2-6.7
		c1.8-2.501,1.9-5.801,1.9-12.801c0-6.9-0.1-10.201-1.9-12.701c-2.6-3.601-3.4-4.9-3.2-6.7c0.1-2.101,1.6-3.4,4.6-4.4
		c3.101-1,9.001-2.8,10.101-3.101c5.701-1.6,8.701,1.101,8.701,6.701c0,2.399,0,11.2,0,20.201c0,7,0.1,10.3,1.9,12.801
		C256.314,90.003,257.014,91.302,256.915,93.103z M229.913,31.599c0-5.7,5.101-10.301,11.301-10.301
		c6.3,0,11.401,4.601,11.401,10.301c0,5.801-5.101,10.4-11.401,10.4C235.013,42,229.913,37.4,229.913,31.599z"/>
	<path d="M307.114,80.102c-0.5,3.5-1.2,8.4-1.8,12.001c-0.4,3-1.7,4-4.6,4c-2.9,0-33.302,0-36.302,0c-4.6,0-5.5-3.601-2.9-7.4
		c2.101-3.101,14.201-20.901,21.901-32.202h-5.7c-4.8,0-6.9,2.101-7.9,4c-1.4,2.601-2.9,6.001-6.2,6.001c-1.8,0-2.9-1.2-2.601-3.4
		c0.5-3.5,1.2-8.4,1.8-12.001c0.4-3,1.7-4,4.6-4c3,0,29.102,0,33.002,0c4.701,0,5.701,3.8,3.3,7.4
		c-1,1.601-13.801,20.401-21.801,32.202h8.5c4.8,0,6.9-2.101,7.9-4c1.4-2.601,2.9-6.001,6.201-6.001
		C306.313,76.702,307.414,77.902,307.114,80.102z"/>
	<path d="M357.314,80.102c-0.5,3.5-1.2,8.4-1.8,12.001c-0.4,3-1.7,4-4.6,4c-2.9,0-33.302,0-36.302,0c-4.6,0-5.5-3.601-2.9-7.4
		c2.101-3.101,14.201-20.901,21.901-32.202h-5.7c-4.8,0-6.9,2.101-7.9,4c-1.4,2.601-2.9,6.001-6.2,6.001c-1.8,0-2.9-1.2-2.601-3.4
		c0.5-3.5,1.2-8.4,1.8-12.001c0.4-3,1.7-4,4.6-4c3,0,29.102,0,33.002,0c4.701,0,5.701,3.8,3.3,7.4
		c-1,1.601-13.801,20.401-21.801,32.202h8.5c4.8,0,6.9-2.101,7.9-4c1.4-2.601,2.9-6.001,6.201-6.001
		C356.514,76.702,357.614,77.902,357.314,80.102z"/>
	<path d="M415.413,89.403c-0.199,4.3-5.699,7.601-11.301,7.601c-7.4,0-11.2-2.101-12.801-6.4c-2.699,4.2-6.8,6.4-13.2,6.4
		c-10.801,0-17.201-5.601-17.201-13.801c0-13.301,12.2-17.201,29.702-17.201c0-0.801,0-1.4,0-1.4c0-5.601-0.301-10.001-4.301-10.601
		c-2.9-0.4-5.7,0.4-6.9,4.2c-1.9,6.101-5.801,7.5-10.2,6c-2.7-1-5.2-4.2-3.501-8.5c2.9-7.601,13.102-9.4,21.602-9.4
		c13.801,0,21.502,6.2,21.502,20.801v2c0,6.9-0.301,12.801,1.9,15.102C413.214,86.802,415.614,86.403,415.413,89.403z
		 M391.312,75.302c0-3.201-1.299-3.301-4.699-2.7c-3.801,0.6-6.9,3.5-7.201,7.9c-0.199,4.2,1.7,7.2,6.101,7.2
		c4.001,0,5.8-3.2,5.8-8.4C391.312,77.302,391.312,76.502,391.312,75.302z"/>
	<path d="M488.414,86.403c2.601,3.6,3.4,4.899,3.3,6.7c-0.199,2.1-1.6,3-4.699,3c-0.201,0-19.701,0-19.902,0c-3.1,0-4.5-0.9-4.699-3
		c-0.101-1.801,0.699-3.101,3.3-6.7c1.8-2.501,1.899-5.801,1.899-12.801v-8.501h-24.4v8.501c0,7,0.1,10.3,1.899,12.801
		c2.601,3.6,3.4,4.899,3.3,6.7c-0.199,2.1-1.6,3-4.699,3c-0.201,0-19.701,0-19.902,0c-3.1,0-4.5-0.9-4.699-3
		c-0.101-1.801,0.699-3.101,3.3-6.7c1.8-2.501,1.899-5.801,1.899-12.801V48.6c0-6.9-0.1-10.2-1.899-12.801
		c-2.601-3.601-3.4-4.8-3.3-6.601c0.199-2.1,1.6-3.1,4.699-3.1c0.201,0,19.701,0,19.902,0c3.1,0,4.5,1,4.699,3.1
		c0.101,1.801-0.699,3-3.3,6.601c-1.8,2.601-1.899,5.9-1.899,12.801v7.101h24.4V48.6c0-6.9-0.1-10.2-1.899-12.801
		c-2.601-3.601-3.4-4.8-3.3-6.601c0.199-2.1,1.6-3.1,4.699-3.1c0.201,0,19.701,0,19.902,0c3.1,0,4.5,1,4.699,3.1
		c0.101,1.801-0.699,3-3.3,6.601c-1.8,2.601-1.899,5.9-1.899,12.801v25.002C486.515,80.602,486.614,83.902,488.414,86.403z"/>
	<path d="M550.313,71.601c0,15.602-10.601,25.402-27.202,25.402c-16.701,0-27.301-9.801-27.301-25.402
		c0-15.601,10.6-25.301,27.301-25.301C539.712,46.301,550.313,56.001,550.313,71.601z M531.712,71.601
		c0-9.1-2.9-15.801-8.602-15.801c-5.8,0-8.7,6.701-8.7,15.801c0,9.101,2.9,15.901,8.7,15.901
		C528.812,87.503,531.712,80.702,531.712,71.601z"/>
	<path d="M614.413,89.403c-0.2,4.3-5.601,7.601-11.301,7.601c-7.4,0-11.201-2.101-12.801-6.4c-2.9,4.2-8.9,6.4-15.201,6.4
		c-13.101,0-17.602-8.801-17.602-16.602c0-1.7,0-6.8,0-6.8c0-6.9-0.1-10.201-1.899-12.701c-2.601-3.601-3.4-4.9-3.2-6.7
		c0.1-2.101,1.6-3.4,4.6-4.4c3.101-1,9.001-2.8,10.102-3.101c5.7-1.6,8.6,1.101,8.6,6.701c0,4.6,0,17.2,0,17.2
		c0,7.001-0.1,15.701,7.201,15.701c4.4,0,6.7-3.5,6.7-9.601c0-0.6,0-3.1,0-3.1c0-6.9-0.101-10.201-1.899-12.701
		c-2.601-3.601-3.4-4.9-3.201-6.7c0.101-2.101,1.601-3.4,4.601-4.4c3.101-1,9.001-2.8,10.101-3.101c5.7-1.6,8.701,1.101,8.701,6.701
		c0,5.2,0,15.7,0,15.7c0,6.9-0.301,13.201,1.899,15.102C612.313,86.403,614.612,86.403,614.413,89.403z"/>
	<path d="M663.212,84.802c-2.2,8.7-11.301,12.201-22.401,12.201c-20.901,0-28.901-11.801-22.802-18.401c3-3.2,8.9-2.8,10.701,2.6
		c2.199,6.701,6.2,7.201,10.1,7.801c3.001,0.4,7.701,0.3,8.401-2.8c0.899-3.801-5.601-4.9-13.201-8.201
		c-7.2-3.2-18.401-8.6-14.101-21.701c3-8.9,12.701-10.5,22.201-10c16.102,0.899,21.401,11.5,16.602,17.201
		c-2.301,2.6-7.9,2.7-10.201-1.2c-1.9-3.301-1.5-7.801-8-8.201c-2.801-0.3-5.601,0.4-6.101,3.001c-0.5,2.7,2.7,4.6,10.3,7.6
		C656.812,69.601,666.312,72.402,663.212,84.802z"/>
	<path d="M717.811,84.402c-3,6.801-9.8,12.602-21.601,12.602c-13.901,0-27.702-7.9-28.303-24.702
		c-0.5-17.201,12.801-26.602,27.803-26.001c14.7,0.399,21.701,10.601,22.501,18.801c0.7,6.7-0.5,9.301-6.9,9.301
		c-4.9,0-24.702,0-24.702,0c2.4,12.801,19.102,14.801,27.202,6.9C716.71,78.502,719.511,80.702,717.811,84.402z M686.709,63.502
		c-0.3,1.1,0.2,2.1,1.101,2.1c2.399,0,9.9,0,11.7,0c2.399,0,3.5-1.7,2.7-4.7c-0.7-2.9-2.4-7-8-6.5
		C689.709,54.701,687.608,59.301,686.709,63.502z"/>
</g>
<polygon fill="#CC1F42" points="82.393,20.061 57.262,4.645 32.13,20.061 7,35.478 7,99.103 107.525,99.103 107.525,35.478 "/>
</svg>
